<svg xmlns="http://www.w3.org/2000/svg" width="1600" height="1000" fill="none" viewBox="0 0 1600 1000"><defs><linearGradient id="ink" x1="0" x2="1600" y1="1000" y2="0" gradientUnits="userSpaceOnUse"><stop stop-color="#a2a2a2"/><stop offset=".7" stop-color="#a2a2a2"/><stop offset="1" stop-color="#a2a2a2"/></linearGradient><radialGradient id="quiet"><stop offset=".15" stop-color="#fff" stop-opacity="0"/><stop offset=".8" stop-color="#fff" stop-opacity=".5"/><stop offset="1" stop-color="#fff"/></radialGradient><mask id="edges"><path fill="url(#quiet)" d="M0 0h1600v1000H0z"/></mask></defs><g stroke="url(#ink)" stroke-width="2" mask="url(#edges)" opacity=".04"><path d="m860-60 800 800m-840-800 800 800m-840-800 800 800m-840-800 800 800m-840-800 800 800m-840-800 800 800m-840-800 800 800"/><path d="m-100 690 490 490m-450-490 490 490m-450-490 490 490m-450-490 490 490m-450-490 490 490m-450-490 490 490"/></g></svg>