<svg xmlns="http://www.w3.org/2000/svg" fill="none" viewBox="0 0 120 120"><defs><linearGradient id="lobster-gradient" x1="0%" x2="100%" y1="0%" y2="100%"><stop offset="0%" stop-color="#ff4d4d"/><stop offset="100%" stop-color="#991b1b"/></linearGradient></defs><g><animateTransform additive="sum" attributeName="transform" calcMode="spline" dur="4s" keySplines="0.42 0 0.58 1; 0.42 0 0.58 1" keyTimes="0; 0.5; 1" repeatCount="indefinite" type="translate" values="0 0; 0 -5; 0 0"/><path fill="url(#lobster-gradient)" d="M60 10 C30 10 15 35 15 55 C15 75 30 95 45 100 L45 110 L55 110 L55 100 C55 100 60 102 65 100 L65 110 L75 110 L75 100 C90 95 105 75 105 55 C105 35 90 10 60 10Z"/><path fill="url(#lobster-gradient)" d="M20 45 C5 40 0 50 5 60 C10 70 20 65 25 55 C28 48 25 45 20 45Z"><animateTransform attributeName="transform" calcMode="spline" dur="4s" keySplines="0.42 0 0.58 1; 0.42 0 0.58 1; 0.42 0 0.58 1; 0.42 0 0.58 1" keyTimes="0; 0.85; 0.9; 0.95; 1" repeatCount="indefinite" type="rotate" values="0 26 53; 0 26 53; -8 26 53; 0 26 53; 0 26 53"/></path><path fill="url(#lobster-gradient)" d="M100 45 C115 40 120 50 115 60 C110 70 100 65 95 55 C92 48 95 45 100 45Z"><animateTransform attributeName="transform" begin="0.2s" calcMode="spline" dur="4s" keySplines="0.42 0 0.58 1; 0.42 0 0.58 1; 0.42 0 0.58 1; 0.42 0 0.58 1" keyTimes="0; 0.85; 0.9; 0.95; 1" repeatCount="indefinite" type="rotate" values="0 94 53; 0 94 53; -8 94 53; 0 94 53; 0 94 53"/></path><path stroke="#ff4d4d" stroke-linecap="round" stroke-width="3" d="M45 15 Q35 5 30 8"><animateTransform attributeName="transform" calcMode="spline" dur="2s" keySplines="0.42 0 0.58 1; 0.42 0 0.58 1; 0.42 0 0.58 1" keyTimes="0; 0.25; 0.75; 1" repeatCount="indefinite" type="rotate" values="0 37.5 11; -3 37.5 11; 3 37.5 11; 0 37.5 11"/></path><path stroke="#ff4d4d" stroke-linecap="round" stroke-width="3" d="M75 15 Q85 5 90 8"><animateTransform attributeName="transform" calcMode="spline" dur="2s" keySplines="0.42 0 0.58 1; 0.42 0 0.58 1; 0.42 0 0.58 1" keyTimes="0; 0.25; 0.75; 1" repeatCount="indefinite" type="rotate" values="0 82.5 11; -3 82.5 11; 3 82.5 11; 0 82.5 11"/></path><circle cx="45" cy="35" r="6" fill="#050810"/><circle cx="75" cy="35" r="6" fill="#050810"/><circle cx="46" cy="34" r="2.5" fill="#00e5cc"><animate attributeName="opacity" dur="3s" keyTimes="0; 0.9; 0.95; 1" repeatCount="indefinite" values="1; 1; 0.3; 1"/></circle><circle cx="76" cy="34" r="2.5" fill="#00e5cc"><animate attributeName="opacity" dur="3s" keyTimes="0; 0.9; 0.95; 1" repeatCount="indefinite" values="1; 1; 0.3; 1"/></circle></g></svg>